<?xml version="1.0" encoding="UTF-8" standalone="no"?>
<!-- Created with Inkscape (http://www.inkscape.org/) -->
<svg xmlns:inkscape="http://www.inkscape.org/namespaces/inkscape"
     xmlns:rdf="http://www.w3.org/1999/02/22-rdf-syntax-ns#"
     xmlns="http://www.w3.org/2000/svg"
     xmlns:xlink="http://www.w3.org/1999/xlink"
     xmlns:ns1="http://sozi.baierouge.fr"
     xmlns:cc="http://creativecommons.org/ns#"
     xmlns:sodipodi="http://sodipodi.sourceforge.net/DTD/sodipodi-0.dtd"
     xmlns:dc="http://purl.org/dc/elements/1.1/"
     id="svg2"
     viewBox="0 0 498.14 498.14"
     version="1.1"
     inkscape:version="0.91 r13725"
     style="background-color: #0A0C10"
     >
  <defs>
    <filter id="neonGlow" x="-50%" y="-50%" width="200%" height="200%">
      <feGaussianBlur in="SourceGraphic" stdDeviation="4" result="blur"/>
      <feFlood flood-color="#FF0000" result="glowColor"/>
      <feComposite in="glowColor" in2="blur" operator="in" result="glow"/>
      <feMerge>
        <feMergeNode in="glow"/>
        <feMergeNode in="SourceGraphic"/>
      </feMerge>
    </filter>
  </defs>
  <g id="layer1" transform="translate(-112.36 -257.58)">
    <g id="g2990" transform="matrix(2.4783 0 0 2.4783 361.43 506.65)" filter="url(#neonGlow)">
      <g id="g2992">
        <path id="path2994" style="stroke:#FF0000;fill:none" d="m6.0421 0a6.0421 100 0 1 1 -12.084 0 6.0421 100 0 1 1 12.084 0z" transform="rotate(2.0024)"/>
        <path id="path2996" style="stroke:#E34234;fill:none" d="m48.429 0a48.429 100 0 1 1 -96.858 0 48.429 100 0 1 1 96.858 0z" transform="matrix(.94756 .31957 -.31957 .94756 0 0)"/>
        <path id="path2998" style="stroke:#E34234;fill:none" d="m77.839 0a77.839 100 0 1 1 -155.68 0 77.839 100 0 1 1 155.68 0z" transform="matrix(.69827 .71583 -.71583 .69827 0 0)"/>
        <path id="path3000" style="stroke:#E34234;fill:none" d="m86.393 0a86.393 100 0 1 1 -172.79 0 86.393 100 0 1 1 172.79 0z" transform="rotate(-82.038)"/>
        <path id="path3002" style="stroke:#E34234;fill:none" d="m71.798 0a71.798 100 0 1 1 -143.6 0 71.798 100 0 1 1 143.6 0z" transform="rotate(-36.549)"/>
        <path id="path3004" style="stroke:#E34234;fill:none" d="m37.965 0a37.965 100 0 1 1 -75.93 0 37.965 100 0 1 1 75.93 0z" transform="rotate(-13.705)"/>
      </g>
      <g id="g3006">
        <path id="path3008" style="stroke:#E34234;fill:none" d="m23.932 84.086a23.932 11.967 0 1 1 -47.863 0 23.932 11.967 0 1 1 47.863 0z"/>
        <path id="path3010" style="stroke:#E34234;fill:none" d="m46.472 76.683a46.472 23.237 0 1 1 -92.945 0 46.472 23.237 0 1 1 92.945 0z"/>
        <path id="path3012" style="stroke:#E34234;fill:none" d="m66.312 64.823a66.312 33.157 0 1 1 -132.62 0 66.312 33.157 0 1 1 132.62 0z"/>
        <path id="path3014" style="stroke:#E34234;fill:none" d="m82.298 49.196a82.298 41.15 0 1 1 -164.6 0 82.298 41.15 0 1 1 164.6 0z"/>
        <path id="path3016" style="stroke:#E34234;fill:none" d="m93.502 30.71a93.502 46.752 0 1 1 -187 0 93.502 46.752 0 1 1 187 0z"/>
        <path id="path3018" style="stroke:#E34234;fill:none" d="m99.271 10.439a99.271 49.636 0 1 1 -198.54 0 99.271 49.636 0 1 1 198.54 0z"/>
        <path id="path3020" style="stroke:#E34234;fill:none" d="m99.271-10.439a99.271 49.636 0 1 1 -198.54 0 99.271 49.636 0 1 1 198.54 0z"/>
        <path id="path3022" style="stroke:#E34234;fill:none" d="m93.502-30.71a93.502 46.752 0 1 1 -187 0 93.502 46.752 0 1 1 187 0z"/>
        <path id="path3024" style="stroke:#E34234;fill:none" d="m82.298-49.196a82.298 41.15 0 1 1 -164.6 0 82.298 41.15 0 1 1 164.6 0z"/>
        <path id="path3026" style="stroke:#E34234;fill:none" d="m66.312-64.823a66.312 33.157 0 1 1 -132.62 0 66.312 33.157 0 1 1 132.62 0z"/>
        <path id="path3028" style="stroke:#E34234;fill:none" d="m46.472-76.683a46.472 23.237 0 1 1 -92.945 0 46.472 23.237 0 1 1 92.945 0z"/>
        <path id="path3030" style="stroke:#E34234;fill:none" d="m23.932-84.086a23.932 11.967 0 1 1 -47.863 0 23.932 11.967 0 1 1 47.863 0z"/>
      </g>
      <path id="path3032" style="stroke:#E34234;fill:none" d="m100 0a100 100 0 1 1 -200 0 100 100 0 1 1 200 0z"/>
      
       <animate attributeName="filter" begin="0s;glowOut.end" dur="2s" values="url(#neonGlow);none;url(#neonGlow)" keyTimes="0;0.5;1" fill="freeze" id="glowIn" />
      <animate attributeName="filter" begin="glowIn.end" dur="2s" values="url(#neonGlow);none;url(#neonGlow)" keyTimes="0;0.5;1" fill="freeze" id="glowOut" />
  
    </g>
  </g>

</svg>
